<mxfile host="drawio-plugin" modified="2024-03-23T07:57:56.136Z" agent="5.0 (Windows NT 10.0; Win64; x64) AppleWebKit/537.36 (KHTML, like Gecko) Chrome/111.0.0.0 Safari/537.36" etag="HNr-F131mwMsHgnJcoWg" version="20.5.3" type="embed"><diagram name="Страница — 1" id="ox4GwTXYA2zkXbC3pGn5"><mxGraphModel dx="745" dy="332" grid="1" gridSize="10" guides="1" tooltips="1" connect="1" arrows="1" fold="1" page="1" pageScale="1" pageWidth="827" pageHeight="1169" math="0" shadow="0"><root><mxCell id="0"/><mxCell id="1" parent="0"/><mxCell id="wjlancOanw4fYzLR8soG-32" value="" style="rounded=0;whiteSpace=wrap;html=1;" parent="1" vertex="1"><mxGeometry x="40" y="440" width="750" height="330" as="geometry"/></mxCell><mxCell id="wjlancOanw4fYzLR8soG-31" value="" style="rounded=0;whiteSpace=wrap;html=1;" parent="1" vertex="1"><mxGeometry x="40" y="30" width="750" height="375" as="geometry"/></mxCell><mxCell id="wjlancOanw4fYzLR8soG-1" value="Пользователь&amp;nbsp;" style="swimlane;fontStyle=1;align=center;verticalAlign=top;childLayout=stackLayout;horizontal=1;startSize=26;horizontalStack=0;resizeParent=1;resizeParentMax=0;resizeLast=0;collapsible=1;marginBottom=0;whiteSpace=wrap;html=1;fillColor=#dae8fc;strokeColor=#6c8ebf;" parent="1" vertex="1"><mxGeometry x="160" y="510" width="160" height="164" as="geometry"/></mxCell><mxCell id="wjlancOanw4fYzLR8soG-2" value="Id" style="text;strokeColor=#6c8ebf;fillColor=#dae8fc;align=left;verticalAlign=top;spacingLeft=4;spacingRight=4;overflow=hidden;rotatable=0;points=[[0,0.5],[1,0.5]];portConstraint=eastwest;whiteSpace=wrap;html=1;" parent="wjlancOanw4fYzLR8soG-1" vertex="1"><mxGeometry y="26" width="160" height="26" as="geometry"/></mxCell><mxCell id="wjlancOanw4fYzLR8soG-3" value="" style="line;strokeWidth=1;fillColor=none;align=left;verticalAlign=middle;spacingTop=-1;spacingLeft=3;spacingRight=3;rotatable=0;labelPosition=right;points=[];portConstraint=eastwest;strokeColor=inherit;" parent="wjlancOanw4fYzLR8soG-1" vertex="1"><mxGeometry y="52" width="160" height="8" as="geometry"/></mxCell><mxCell id="wjlancOanw4fYzLR8soG-4" value="Логин" style="text;strokeColor=#6c8ebf;fillColor=#dae8fc;align=left;verticalAlign=top;spacingLeft=4;spacingRight=4;overflow=hidden;rotatable=0;points=[[0,0.5],[1,0.5]];portConstraint=eastwest;whiteSpace=wrap;html=1;" parent="wjlancOanw4fYzLR8soG-1" vertex="1"><mxGeometry y="60" width="160" height="26" as="geometry"/></mxCell><mxCell id="wjlancOanw4fYzLR8soG-5" value="Пароль" style="text;strokeColor=#6c8ebf;fillColor=#dae8fc;align=left;verticalAlign=top;spacingLeft=4;spacingRight=4;overflow=hidden;rotatable=0;points=[[0,0.5],[1,0.5]];portConstraint=eastwest;whiteSpace=wrap;html=1;" parent="wjlancOanw4fYzLR8soG-1" vertex="1"><mxGeometry y="86" width="160" height="26" as="geometry"/></mxCell><mxCell id="wjlancOanw4fYzLR8soG-6" value="Телефон" style="text;strokeColor=#6c8ebf;fillColor=#dae8fc;align=left;verticalAlign=top;spacingLeft=4;spacingRight=4;overflow=hidden;rotatable=0;points=[[0,0.5],[1,0.5]];portConstraint=eastwest;whiteSpace=wrap;html=1;" parent="wjlancOanw4fYzLR8soG-1" vertex="1"><mxGeometry y="112" width="160" height="26" as="geometry"/></mxCell><mxCell id="wjlancOanw4fYzLR8soG-7" value="Почта" style="text;strokeColor=#6c8ebf;fillColor=#dae8fc;align=left;verticalAlign=top;spacingLeft=4;spacingRight=4;overflow=hidden;rotatable=0;points=[[0,0.5],[1,0.5]];portConstraint=eastwest;whiteSpace=wrap;html=1;" parent="wjlancOanw4fYzLR8soG-1" vertex="1"><mxGeometry y="138" width="160" height="26" as="geometry"/></mxCell><mxCell id="wjlancOanw4fYzLR8soG-8" value="Корзина" style="swimlane;fontStyle=1;align=center;verticalAlign=top;childLayout=stackLayout;horizontal=1;startSize=26;horizontalStack=0;resizeParent=1;resizeParentMax=0;resizeLast=0;collapsible=1;marginBottom=0;whiteSpace=wrap;html=1;" parent="1" vertex="1"><mxGeometry x="310" y="69" width="160" height="134" as="geometry"/></mxCell><mxCell id="wjlancOanw4fYzLR8soG-9" value="Id" style="text;strokeColor=none;fillColor=none;align=left;verticalAlign=top;spacingLeft=4;spacingRight=4;overflow=hidden;rotatable=0;points=[[0,0.5],[1,0.5]];portConstraint=eastwest;whiteSpace=wrap;html=1;" parent="wjlancOanw4fYzLR8soG-8" vertex="1"><mxGeometry y="26" width="160" height="22" as="geometry"/></mxCell><mxCell id="wjlancOanw4fYzLR8soG-10" value="" style="line;strokeWidth=1;fillColor=none;align=left;verticalAlign=middle;spacingTop=-1;spacingLeft=3;spacingRight=3;rotatable=0;labelPosition=right;points=[];portConstraint=eastwest;strokeColor=inherit;" parent="wjlancOanw4fYzLR8soG-8" vertex="1"><mxGeometry y="48" width="160" height="8" as="geometry"/></mxCell><mxCell id="wjlancOanw4fYzLR8soG-11" value="Пользователь_ID" style="text;strokeColor=none;fillColor=none;align=left;verticalAlign=top;spacingLeft=4;spacingRight=4;overflow=hidden;rotatable=0;points=[[0,0.5],[1,0.5]];portConstraint=eastwest;whiteSpace=wrap;html=1;" parent="wjlancOanw4fYzLR8soG-8" vertex="1"><mxGeometry y="56" width="160" height="26" as="geometry"/></mxCell><mxCell id="wjlancOanw4fYzLR8soG-12" value="Продукты&amp;nbsp;&lt;div&gt;&lt;br&gt;&lt;/div&gt;" style="text;strokeColor=none;fillColor=none;align=left;verticalAlign=top;spacingLeft=4;spacingRight=4;overflow=hidden;rotatable=0;points=[[0,0.5],[1,0.5]];portConstraint=eastwest;whiteSpace=wrap;html=1;" parent="wjlancOanw4fYzLR8soG-8" vertex="1"><mxGeometry y="82" width="160" height="26" as="geometry"/></mxCell><mxCell id="wjlancOanw4fYzLR8soG-16" value="Количество&amp;nbsp;" style="text;strokeColor=none;fillColor=none;align=left;verticalAlign=top;spacingLeft=4;spacingRight=4;overflow=hidden;rotatable=0;points=[[0,0.5],[1,0.5]];portConstraint=eastwest;whiteSpace=wrap;html=1;" parent="wjlancOanw4fYzLR8soG-8" vertex="1"><mxGeometry y="108" width="160" height="26" as="geometry"/></mxCell><mxCell id="wjlancOanw4fYzLR8soG-17" value="Продукты" style="swimlane;fontStyle=1;align=center;verticalAlign=top;childLayout=stackLayout;horizontal=1;startSize=26;horizontalStack=0;resizeParent=1;resizeParentMax=0;resizeLast=0;collapsible=1;marginBottom=0;whiteSpace=wrap;html=1;" parent="1" vertex="1"><mxGeometry x="60" y="69" width="160" height="160" as="geometry"/></mxCell><mxCell id="wjlancOanw4fYzLR8soG-18" value="Id" style="text;strokeColor=none;fillColor=none;align=left;verticalAlign=top;spacingLeft=4;spacingRight=4;overflow=hidden;rotatable=0;points=[[0,0.5],[1,0.5]];portConstraint=eastwest;whiteSpace=wrap;html=1;" parent="wjlancOanw4fYzLR8soG-17" vertex="1"><mxGeometry y="26" width="160" height="22" as="geometry"/></mxCell><mxCell id="wjlancOanw4fYzLR8soG-19" value="" style="line;strokeWidth=1;fillColor=none;align=left;verticalAlign=middle;spacingTop=-1;spacingLeft=3;spacingRight=3;rotatable=0;labelPosition=right;points=[];portConstraint=eastwest;strokeColor=inherit;" parent="wjlancOanw4fYzLR8soG-17" vertex="1"><mxGeometry y="48" width="160" height="8" as="geometry"/></mxCell><mxCell id="wjlancOanw4fYzLR8soG-20" value="Название" style="text;strokeColor=none;fillColor=none;align=left;verticalAlign=top;spacingLeft=4;spacingRight=4;overflow=hidden;rotatable=0;points=[[0,0.5],[1,0.5]];portConstraint=eastwest;whiteSpace=wrap;html=1;" parent="wjlancOanw4fYzLR8soG-17" vertex="1"><mxGeometry y="56" width="160" height="26" as="geometry"/></mxCell><mxCell id="wjlancOanw4fYzLR8soG-21" value="Изображения" style="text;strokeColor=none;fillColor=none;align=left;verticalAlign=top;spacingLeft=4;spacingRight=4;overflow=hidden;rotatable=0;points=[[0,0.5],[1,0.5]];portConstraint=eastwest;whiteSpace=wrap;html=1;" parent="wjlancOanw4fYzLR8soG-17" vertex="1"><mxGeometry y="82" width="160" height="26" as="geometry"/></mxCell><mxCell id="wjlancOanw4fYzLR8soG-22" value="Цена" style="text;strokeColor=none;fillColor=none;align=left;verticalAlign=top;spacingLeft=4;spacingRight=4;overflow=hidden;rotatable=0;points=[[0,0.5],[1,0.5]];portConstraint=eastwest;whiteSpace=wrap;html=1;" parent="wjlancOanw4fYzLR8soG-17" vertex="1"><mxGeometry y="108" width="160" height="26" as="geometry"/></mxCell><mxCell id="wjlancOanw4fYzLR8soG-23" value="Категория" style="text;strokeColor=none;fillColor=none;align=left;verticalAlign=top;spacingLeft=4;spacingRight=4;overflow=hidden;rotatable=0;points=[[0,0.5],[1,0.5]];portConstraint=eastwest;whiteSpace=wrap;html=1;" parent="wjlancOanw4fYzLR8soG-17" vertex="1"><mxGeometry y="134" width="160" height="26" as="geometry"/></mxCell><mxCell id="wjlancOanw4fYzLR8soG-25" value="Продеваемый товар" style="swimlane;fontStyle=1;align=center;verticalAlign=top;childLayout=stackLayout;horizontal=1;startSize=26;horizontalStack=0;resizeParent=1;resizeParentMax=0;resizeLast=0;collapsible=1;marginBottom=0;whiteSpace=wrap;html=1;" parent="1" vertex="1"><mxGeometry x="570" y="116" width="160" height="134" as="geometry"/></mxCell><mxCell id="wjlancOanw4fYzLR8soG-26" value="Id" style="text;strokeColor=none;fillColor=none;align=left;verticalAlign=top;spacingLeft=4;spacingRight=4;overflow=hidden;rotatable=0;points=[[0,0.5],[1,0.5]];portConstraint=eastwest;whiteSpace=wrap;html=1;" parent="wjlancOanw4fYzLR8soG-25" vertex="1"><mxGeometry y="26" width="160" height="22" as="geometry"/></mxCell><mxCell id="wjlancOanw4fYzLR8soG-27" value="" style="line;strokeWidth=1;fillColor=none;align=left;verticalAlign=middle;spacingTop=-1;spacingLeft=3;spacingRight=3;rotatable=0;labelPosition=right;points=[];portConstraint=eastwest;strokeColor=inherit;" parent="wjlancOanw4fYzLR8soG-25" vertex="1"><mxGeometry y="48" width="160" height="8" as="geometry"/></mxCell><mxCell id="wjlancOanw4fYzLR8soG-28" value="Название&amp;nbsp;" style="text;strokeColor=none;fillColor=none;align=left;verticalAlign=top;spacingLeft=4;spacingRight=4;overflow=hidden;rotatable=0;points=[[0,0.5],[1,0.5]];portConstraint=eastwest;whiteSpace=wrap;html=1;" parent="wjlancOanw4fYzLR8soG-25" vertex="1"><mxGeometry y="56" width="160" height="26" as="geometry"/></mxCell><mxCell id="wjlancOanw4fYzLR8soG-29" value="&lt;div&gt;Описание&amp;nbsp;&lt;/div&gt;" style="text;strokeColor=none;fillColor=none;align=left;verticalAlign=top;spacingLeft=4;spacingRight=4;overflow=hidden;rotatable=0;points=[[0,0.5],[1,0.5]];portConstraint=eastwest;whiteSpace=wrap;html=1;" parent="wjlancOanw4fYzLR8soG-25" vertex="1"><mxGeometry y="82" width="160" height="26" as="geometry"/></mxCell><mxCell id="V2817OACCNWJI-HFdNwg-1" value="Категория" style="text;strokeColor=none;fillColor=none;align=left;verticalAlign=top;spacingLeft=4;spacingRight=4;overflow=hidden;rotatable=0;points=[[0,0.5],[1,0.5]];portConstraint=eastwest;whiteSpace=wrap;html=1;" parent="wjlancOanw4fYzLR8soG-25" vertex="1"><mxGeometry y="108" width="160" height="26" as="geometry"/></mxCell><mxCell id="wjlancOanw4fYzLR8soG-33" value="Архитектура сайта&amp;nbsp;" style="text;html=1;align=center;verticalAlign=middle;whiteSpace=wrap;rounded=0;" parent="1" vertex="1"><mxGeometry x="350" y="250" width="100" height="50" as="geometry"/></mxCell><mxCell id="wjlancOanw4fYzLR8soG-34" value="Архитектура пользователя&amp;nbsp;" style="text;html=1;align=center;verticalAlign=middle;whiteSpace=wrap;rounded=0;" parent="1" vertex="1"><mxGeometry x="360" y="460" width="60" height="30" as="geometry"/></mxCell></root></mxGraphModel></diagram></mxfile>